<svg id="Capa_1" enable-background="new 0 0 510 510" height="512" 
viewBox="0 0 510 510" width="512" 
xmlns="http://www.w3.org/2000/svg">
<path d="m204 255c0 28.122 22.878 51 51 51 28.121
 0 51-22.878 51-51s-22.879-51-51-51c-28.122 
 0-51 22.878-51 51zm72 0c0 11.58-9.421 21-21 
 21-11.58 0-21-9.42-21-21s9.42-21 21-21c11.579 
 0 21 9.42 21 21z"/>
 <path d="m255 65c8.284 0 15-6.716 15-15v-35c0-8.284-6.716-15-15-15s-15 6.716-15 
 15v35c0 8.284 6.716 15 15 15z"/>
 <path d="m344.5 85.062c7.192 4.102 16.355 
 1.601 20.461-5.599l19.962-35c4.104-7.196 
 1.599-16.356-5.598-20.461-7.198-4.104-16.356-1.599-20.461 
 5.599l-19.962 35c-4.104 7.195-1.598 16.356 5.598 20.461z"/>
 <path d="m145.039 79.463c4.104 7.196 13.264 9.702 20.461 5.598 
 7.196-4.104 9.702-13.265 5.598-20.461l-19.962-35c-4.104-7.196-13.266-9.702-20.461-5.598-7.196 
 4.104-9.702 13.265-5.598 20.461z"/>
 <path d="m255 445c-8.284 0-15 6.716-15 15v35c0 8.284
  6.716 15 15 15s15-6.716 15-15v-35c0-8.284-6.716-15-15-15z"/>
  <path d="m165.5 424.939c-7.196-4.103-16.356-1.598-20.461 
  5.598l-19.962 35c-4.104 7.196-1.598 16.357 5.598 20.461 
  7.197 4.104 16.357 1.597 20.461-5.598l19.962-35c4.105-7.196 
  1.598-16.357-5.598-20.461z"/>
  <path d="m364.961 430.537c-4.104-7.197-13.267-9.701-20.461-5.599-7.196 
  4.104-9.702 13.265-5.598 20.461l19.962 35c4.103 7.196 13.263 9.703 20.461 
  5.599 7.196-4.104 9.702-13.265 5.598-20.461z"/></svg>